<mxfile host="www.draw.io" modified="2019-11-19T16:19:06.283Z" agent="Mozilla/5.0 (Windows NT 10.0; Win64; x64) AppleWebKit/537.36 (KHTML, like Gecko) Chrome/72.0.3626.96 Safari/537.36" etag="w0clcXjb3BMwcLyo6w7J" version="12.2.7" type="github" pages="1">
  <diagram id="hrGMXko8yB2qMUC64yRl" name="Page-1">
    <mxGraphModel dx="2215" dy="703" grid="1" gridSize="10" guides="1" tooltips="1" connect="1" arrows="1" fold="1" page="1" pageScale="1" pageWidth="827" pageHeight="1169" math="0" shadow="0">
      <root>
        <mxCell id="0"/>
        <mxCell id="1" parent="0"/>
        <mxCell id="uIHEZVqaHCIBKPa6FD2R-20" value="" style="rounded=0;whiteSpace=wrap;html=1;fillColor=none;strokeWidth=3;strokeColor=#666666;" vertex="1" parent="1">
          <mxGeometry x="390" y="830" width="330" height="360" as="geometry"/>
        </mxCell>
        <mxCell id="vB6N_VuCYX5x7YdYGQZh-119" value="" style="rounded=0;whiteSpace=wrap;html=1;strokeWidth=1;fillColor=none;" parent="1" vertex="1">
          <mxGeometry x="145" y="160" width="540" height="350" as="geometry"/>
        </mxCell>
        <mxCell id="vB6N_VuCYX5x7YdYGQZh-96" value="" style="endArrow=none;dashed=1;html=1;dashPattern=1 1;strokeColor=#666666;strokeWidth=2;fontColor=#3333FF;gradientColor=#b3b3b3;fillColor=#f5f5f5;" parent="1" source="vB6N_VuCYX5x7YdYGQZh-112" edge="1">
          <mxGeometry width="50" height="50" relative="1" as="geometry">
            <mxPoint x="574.5" y="660" as="sourcePoint"/>
            <mxPoint x="574.9857142857145" y="320" as="targetPoint"/>
          </mxGeometry>
        </mxCell>
        <mxCell id="vB6N_VuCYX5x7YdYGQZh-108" value="" style="edgeStyle=orthogonalEdgeStyle;rounded=0;orthogonalLoop=1;jettySize=auto;html=1;dashed=1;dashPattern=1 1;endArrow=none;endFill=0;targetPerimeterSpacing=-1;strokeColor=#FF9933;strokeWidth=2;fontColor=#3333FF;" parent="1" source="vB6N_VuCYX5x7YdYGQZh-65" edge="1">
          <mxGeometry relative="1" as="geometry">
            <mxPoint x="575" y="361" as="targetPoint"/>
          </mxGeometry>
        </mxCell>
        <mxCell id="vB6N_VuCYX5x7YdYGQZh-118" value="" style="edgeStyle=orthogonalEdgeStyle;rounded=0;orthogonalLoop=1;jettySize=auto;html=1;dashed=1;dashPattern=1 1;endArrow=none;endFill=0;targetPerimeterSpacing=-1;strokeColor=#FF9933;strokeWidth=2;fontColor=#3333FF;" parent="1" source="vB6N_VuCYX5x7YdYGQZh-112" edge="1">
          <mxGeometry relative="1" as="geometry">
            <mxPoint x="575" y="502" as="targetPoint"/>
          </mxGeometry>
        </mxCell>
        <mxCell id="vB6N_VuCYX5x7YdYGQZh-116" value="" style="rounded=0;whiteSpace=wrap;html=1;strokeWidth=1;fillColor=none;strokeColor=#808080;" parent="1" vertex="1">
          <mxGeometry x="170" y="240" width="490" height="250" as="geometry"/>
        </mxCell>
        <mxCell id="vB6N_VuCYX5x7YdYGQZh-88" value="" style="endArrow=none;dashed=1;html=1;dashPattern=1 1;strokeColor=#666666;strokeWidth=2;fontColor=#3333FF;gradientColor=#b3b3b3;fillColor=#f5f5f5;" parent="1" source="vB6N_VuCYX5x7YdYGQZh-103" edge="1">
          <mxGeometry width="50" height="50" relative="1" as="geometry">
            <mxPoint x="224.5" y="660" as="sourcePoint"/>
            <mxPoint x="225.4743589743589" y="280" as="targetPoint"/>
          </mxGeometry>
        </mxCell>
        <mxCell id="vB6N_VuCYX5x7YdYGQZh-89" value="" style="endArrow=none;dashed=1;html=1;dashPattern=1 1;strokeColor=#666666;strokeWidth=2;fontColor=#3333FF;gradientColor=#b3b3b3;fillColor=#f5f5f5;" parent="1" edge="1">
          <mxGeometry width="50" height="50" relative="1" as="geometry">
            <mxPoint x="575.1581196581196" y="300" as="sourcePoint"/>
            <mxPoint x="575.4743589743589" y="280" as="targetPoint"/>
          </mxGeometry>
        </mxCell>
        <mxCell id="vB6N_VuCYX5x7YdYGQZh-90" value="" style="endArrow=none;dashed=1;html=1;dashPattern=1 1;strokeColor=#666666;strokeWidth=2;fontColor=#3333FF;gradientColor=#b3b3b3;fillColor=#f5f5f5;" parent="1" source="vB6N_VuCYX5x7YdYGQZh-53" edge="1">
          <mxGeometry width="50" height="50" relative="1" as="geometry">
            <mxPoint x="910" y="660" as="sourcePoint"/>
            <mxPoint x="910.9743589743589" y="280" as="targetPoint"/>
          </mxGeometry>
        </mxCell>
        <mxCell id="vB6N_VuCYX5x7YdYGQZh-87" value="" style="endArrow=none;dashed=1;html=1;dashPattern=1 1;strokeColor=#666666;strokeWidth=2;fontColor=#3333FF;gradientColor=#b3b3b3;fillColor=#f5f5f5;" parent="1" source="vB6N_VuCYX5x7YdYGQZh-99" target="vB6N_VuCYX5x7YdYGQZh-63" edge="1">
          <mxGeometry width="50" height="50" relative="1" as="geometry">
            <mxPoint x="-96" y="660" as="sourcePoint"/>
            <mxPoint x="-80" y="500" as="targetPoint"/>
          </mxGeometry>
        </mxCell>
        <mxCell id="vB6N_VuCYX5x7YdYGQZh-61" value="" style="group" parent="1" vertex="1" connectable="0">
          <mxGeometry x="80" y="320" width="816.5" height="160" as="geometry"/>
        </mxCell>
        <mxCell id="vB6N_VuCYX5x7YdYGQZh-28" style="edgeStyle=orthogonalEdgeStyle;rounded=0;orthogonalLoop=1;jettySize=auto;html=1;exitX=1;exitY=0.5;exitDx=0;exitDy=0;exitPerimeter=0;entryX=0;entryY=0.5;entryDx=0;entryDy=0;dashed=1;strokeWidth=2;strokeColor=#FF0080;" parent="vB6N_VuCYX5x7YdYGQZh-61" target="vB6N_VuCYX5x7YdYGQZh-21" edge="1">
          <mxGeometry relative="1" as="geometry">
            <mxPoint x="180" y="20" as="sourcePoint"/>
          </mxGeometry>
        </mxCell>
        <mxCell id="vB6N_VuCYX5x7YdYGQZh-37" style="edgeStyle=orthogonalEdgeStyle;rounded=0;orthogonalLoop=1;jettySize=auto;html=1;exitX=1;exitY=0.5;exitDx=0;exitDy=0;exitPerimeter=0;entryX=0;entryY=0.5;entryDx=0;entryDy=0;dashed=1;strokeColor=#FF0080;strokeWidth=2;" parent="vB6N_VuCYX5x7YdYGQZh-61" target="vB6N_VuCYX5x7YdYGQZh-31" edge="1">
          <mxGeometry relative="1" as="geometry">
            <mxPoint x="180" y="140" as="sourcePoint"/>
          </mxGeometry>
        </mxCell>
        <mxCell id="vB6N_VuCYX5x7YdYGQZh-39" value="" style="endArrow=classic;html=1;exitX=1;exitY=0.5;exitDx=0;exitDy=0;exitPerimeter=0;entryX=0;entryY=0.5;entryDx=0;entryDy=0;entryPerimeter=0;dashed=1;dashPattern=1 1;strokeWidth=3;strokeColor=#00CC00;" parent="vB6N_VuCYX5x7YdYGQZh-61" target="vB6N_VuCYX5x7YdYGQZh-44" edge="1">
          <mxGeometry width="50" height="50" relative="1" as="geometry">
            <mxPoint x="180" y="140" as="sourcePoint"/>
            <mxPoint x="220" y="100" as="targetPoint"/>
          </mxGeometry>
        </mxCell>
        <mxCell id="vB6N_VuCYX5x7YdYGQZh-40" value="" style="endArrow=classic;html=1;exitX=1;exitY=0.5;exitDx=0;exitDy=0;exitPerimeter=0;entryX=0;entryY=0.5;entryDx=0;entryDy=0;entryPerimeter=0;dashed=1;dashPattern=1 1;strokeColor=#00CC00;strokeWidth=3;" parent="vB6N_VuCYX5x7YdYGQZh-61" target="vB6N_VuCYX5x7YdYGQZh-44" edge="1">
          <mxGeometry width="50" height="50" relative="1" as="geometry">
            <mxPoint x="180" y="20" as="sourcePoint"/>
            <mxPoint x="220" y="60" as="targetPoint"/>
          </mxGeometry>
        </mxCell>
        <mxCell id="vB6N_VuCYX5x7YdYGQZh-42" value="" style="html=1;shadow=0;dashed=0;align=center;verticalAlign=middle;shape=mxgraph.arrows2.arrow;dy=0;dx=10;notch=0;fillColor=#3333FF;strokeColor=#0000FF;" parent="vB6N_VuCYX5x7YdYGQZh-61" vertex="1">
          <mxGeometry x="120" width="60" height="40" as="geometry"/>
        </mxCell>
        <mxCell id="vB6N_VuCYX5x7YdYGQZh-44" value="" style="html=1;shadow=0;dashed=0;align=center;verticalAlign=middle;shape=mxgraph.arrows2.arrow;dy=0;dx=10;notch=0;fillColor=#3333FF;strokeColor=#d79b00;" parent="vB6N_VuCYX5x7YdYGQZh-61" vertex="1">
          <mxGeometry x="240" y="60" width="60" height="40" as="geometry"/>
        </mxCell>
        <mxCell id="vB6N_VuCYX5x7YdYGQZh-27" style="edgeStyle=orthogonalEdgeStyle;rounded=0;orthogonalLoop=1;jettySize=auto;html=1;exitX=1;exitY=0.5;exitDx=0;exitDy=0;exitPerimeter=0;entryX=0;entryY=0.5;entryDx=0;entryDy=0;dashed=1;strokeWidth=2;strokeColor=#FF0080;" parent="vB6N_VuCYX5x7YdYGQZh-61" source="vB6N_VuCYX5x7YdYGQZh-44" target="vB6N_VuCYX5x7YdYGQZh-11" edge="1">
          <mxGeometry relative="1" as="geometry">
            <mxPoint x="320" y="80" as="sourcePoint"/>
          </mxGeometry>
        </mxCell>
        <mxCell id="vB6N_VuCYX5x7YdYGQZh-45" value="" style="html=1;shadow=0;dashed=0;align=center;verticalAlign=middle;shape=mxgraph.arrows2.arrow;dy=0;dx=10;notch=0;fillColor=#3333FF;strokeColor=#d79b00;" parent="vB6N_VuCYX5x7YdYGQZh-61" vertex="1">
          <mxGeometry x="120" y="120" width="60" height="40" as="geometry"/>
        </mxCell>
        <mxCell id="vB6N_VuCYX5x7YdYGQZh-18" value="" style="group;fillColor=#e51400;strokeColor=#B20000;fontColor=#ffffff;" parent="vB6N_VuCYX5x7YdYGQZh-61" vertex="1" connectable="0">
          <mxGeometry x="440" y="60" width="120" height="40" as="geometry"/>
        </mxCell>
        <mxCell id="vB6N_VuCYX5x7YdYGQZh-17" value="" style="group;fillColor=#e51400;strokeColor=#B20000;fontColor=#ffffff;" parent="vB6N_VuCYX5x7YdYGQZh-18" vertex="1" connectable="0">
          <mxGeometry width="120" height="40" as="geometry"/>
        </mxCell>
        <mxCell id="vB6N_VuCYX5x7YdYGQZh-11" value="" style="rounded=0;whiteSpace=wrap;html=1;fillColor=#e51400;strokeColor=#B20000;fontColor=#ffffff;" parent="vB6N_VuCYX5x7YdYGQZh-17" vertex="1">
          <mxGeometry width="20" height="40" as="geometry"/>
        </mxCell>
        <mxCell id="vB6N_VuCYX5x7YdYGQZh-12" value="" style="rounded=0;whiteSpace=wrap;html=1;fillColor=#e51400;strokeColor=#B20000;fontColor=#ffffff;" parent="vB6N_VuCYX5x7YdYGQZh-17" vertex="1">
          <mxGeometry x="20" width="20" height="40" as="geometry"/>
        </mxCell>
        <mxCell id="vB6N_VuCYX5x7YdYGQZh-13" value="" style="rounded=0;whiteSpace=wrap;html=1;fillColor=#e51400;strokeColor=#B20000;fontColor=#ffffff;" parent="vB6N_VuCYX5x7YdYGQZh-17" vertex="1">
          <mxGeometry x="40" width="20" height="40" as="geometry"/>
        </mxCell>
        <mxCell id="vB6N_VuCYX5x7YdYGQZh-14" value="" style="rounded=0;whiteSpace=wrap;html=1;fillColor=#e51400;strokeColor=#B20000;fontColor=#ffffff;" parent="vB6N_VuCYX5x7YdYGQZh-17" vertex="1">
          <mxGeometry x="60" width="20" height="40" as="geometry"/>
        </mxCell>
        <mxCell id="vB6N_VuCYX5x7YdYGQZh-15" value="" style="rounded=0;whiteSpace=wrap;html=1;fillColor=#e51400;strokeColor=#B20000;fontColor=#ffffff;" parent="vB6N_VuCYX5x7YdYGQZh-17" vertex="1">
          <mxGeometry x="80" width="20" height="40" as="geometry"/>
        </mxCell>
        <mxCell id="vB6N_VuCYX5x7YdYGQZh-16" value="" style="rounded=0;whiteSpace=wrap;html=1;fillColor=#e51400;strokeColor=#B20000;fontColor=#ffffff;" parent="vB6N_VuCYX5x7YdYGQZh-17" vertex="1">
          <mxGeometry x="100" width="20" height="40" as="geometry"/>
        </mxCell>
        <mxCell id="vB6N_VuCYX5x7YdYGQZh-19" value="" style="group;fillColor=#e51400;strokeColor=#B20000;fontColor=#ffffff;" parent="vB6N_VuCYX5x7YdYGQZh-61" vertex="1" connectable="0">
          <mxGeometry x="440" width="120" height="40" as="geometry"/>
        </mxCell>
        <mxCell id="vB6N_VuCYX5x7YdYGQZh-20" value="" style="group;fillColor=#e51400;strokeColor=#B20000;fontColor=#ffffff;" parent="vB6N_VuCYX5x7YdYGQZh-19" vertex="1" connectable="0">
          <mxGeometry width="120" height="40" as="geometry"/>
        </mxCell>
        <mxCell id="vB6N_VuCYX5x7YdYGQZh-21" value="" style="rounded=0;whiteSpace=wrap;html=1;fillColor=#e51400;strokeColor=#B20000;fontColor=#ffffff;" parent="vB6N_VuCYX5x7YdYGQZh-20" vertex="1">
          <mxGeometry width="20" height="40" as="geometry"/>
        </mxCell>
        <mxCell id="vB6N_VuCYX5x7YdYGQZh-22" value="" style="rounded=0;whiteSpace=wrap;html=1;fillColor=#e51400;strokeColor=#B20000;fontColor=#ffffff;" parent="vB6N_VuCYX5x7YdYGQZh-20" vertex="1">
          <mxGeometry x="20" width="20" height="40" as="geometry"/>
        </mxCell>
        <mxCell id="vB6N_VuCYX5x7YdYGQZh-23" value="" style="rounded=0;whiteSpace=wrap;html=1;fillColor=#e51400;strokeColor=#B20000;fontColor=#ffffff;" parent="vB6N_VuCYX5x7YdYGQZh-20" vertex="1">
          <mxGeometry x="40" width="20" height="40" as="geometry"/>
        </mxCell>
        <mxCell id="vB6N_VuCYX5x7YdYGQZh-24" value="" style="rounded=0;whiteSpace=wrap;html=1;fillColor=#e51400;strokeColor=#B20000;fontColor=#ffffff;" parent="vB6N_VuCYX5x7YdYGQZh-20" vertex="1">
          <mxGeometry x="60" width="20" height="40" as="geometry"/>
        </mxCell>
        <mxCell id="vB6N_VuCYX5x7YdYGQZh-25" value="" style="rounded=0;whiteSpace=wrap;html=1;fillColor=#e51400;strokeColor=#B20000;fontColor=#ffffff;" parent="vB6N_VuCYX5x7YdYGQZh-20" vertex="1">
          <mxGeometry x="80" width="20" height="40" as="geometry"/>
        </mxCell>
        <mxCell id="vB6N_VuCYX5x7YdYGQZh-26" value="" style="rounded=0;whiteSpace=wrap;html=1;fillColor=#e51400;strokeColor=#B20000;fontColor=#ffffff;" parent="vB6N_VuCYX5x7YdYGQZh-20" vertex="1">
          <mxGeometry x="100" width="20" height="40" as="geometry"/>
        </mxCell>
        <mxCell id="vB6N_VuCYX5x7YdYGQZh-29" value="" style="group;fillColor=#e51400;strokeColor=#B20000;fontColor=#ffffff;" parent="vB6N_VuCYX5x7YdYGQZh-61" vertex="1" connectable="0">
          <mxGeometry x="440" y="120" width="120" height="40" as="geometry"/>
        </mxCell>
        <mxCell id="vB6N_VuCYX5x7YdYGQZh-30" value="" style="group;fillColor=#e51400;strokeColor=#B20000;fontColor=#ffffff;" parent="vB6N_VuCYX5x7YdYGQZh-29" vertex="1" connectable="0">
          <mxGeometry width="120" height="40" as="geometry"/>
        </mxCell>
        <mxCell id="vB6N_VuCYX5x7YdYGQZh-31" value="" style="rounded=0;whiteSpace=wrap;html=1;fillColor=#e51400;strokeColor=#B20000;fontColor=#ffffff;" parent="vB6N_VuCYX5x7YdYGQZh-30" vertex="1">
          <mxGeometry width="20" height="40" as="geometry"/>
        </mxCell>
        <mxCell id="vB6N_VuCYX5x7YdYGQZh-32" value="" style="rounded=0;whiteSpace=wrap;html=1;fillColor=#e51400;strokeColor=#B20000;fontColor=#ffffff;" parent="vB6N_VuCYX5x7YdYGQZh-30" vertex="1">
          <mxGeometry x="20" width="20" height="40" as="geometry"/>
        </mxCell>
        <mxCell id="vB6N_VuCYX5x7YdYGQZh-33" value="" style="rounded=0;whiteSpace=wrap;html=1;fillColor=#e51400;strokeColor=#B20000;fontColor=#ffffff;" parent="vB6N_VuCYX5x7YdYGQZh-30" vertex="1">
          <mxGeometry x="40" width="20" height="40" as="geometry"/>
        </mxCell>
        <mxCell id="vB6N_VuCYX5x7YdYGQZh-34" value="" style="rounded=0;whiteSpace=wrap;html=1;fillColor=#e51400;strokeColor=#B20000;fontColor=#ffffff;" parent="vB6N_VuCYX5x7YdYGQZh-30" vertex="1">
          <mxGeometry x="60" width="20" height="40" as="geometry"/>
        </mxCell>
        <mxCell id="vB6N_VuCYX5x7YdYGQZh-35" value="" style="rounded=0;whiteSpace=wrap;html=1;fillColor=#e51400;strokeColor=#B20000;fontColor=#ffffff;" parent="vB6N_VuCYX5x7YdYGQZh-30" vertex="1">
          <mxGeometry x="80" width="20" height="40" as="geometry"/>
        </mxCell>
        <mxCell id="vB6N_VuCYX5x7YdYGQZh-36" value="" style="rounded=0;whiteSpace=wrap;html=1;fillColor=#e51400;strokeColor=#B20000;fontColor=#ffffff;" parent="vB6N_VuCYX5x7YdYGQZh-30" vertex="1">
          <mxGeometry x="100" width="20" height="40" as="geometry"/>
        </mxCell>
        <mxCell id="vB6N_VuCYX5x7YdYGQZh-80" style="edgeStyle=orthogonalEdgeStyle;rounded=0;orthogonalLoop=1;jettySize=auto;html=1;exitX=1;exitY=0.5;exitDx=0;exitDy=0;entryX=0.5;entryY=1;entryDx=0;entryDy=0;strokeWidth=4;strokeColor=#CCCCFF;endArrow=none;endFill=0;" parent="vB6N_VuCYX5x7YdYGQZh-61" source="vB6N_VuCYX5x7YdYGQZh-26" target="vB6N_VuCYX5x7YdYGQZh-75" edge="1">
          <mxGeometry relative="1" as="geometry">
            <mxPoint x="570" y="90" as="sourcePoint"/>
            <mxPoint x="629" y="90" as="targetPoint"/>
          </mxGeometry>
        </mxCell>
        <mxCell id="vB6N_VuCYX5x7YdYGQZh-86" value="" style="group" parent="vB6N_VuCYX5x7YdYGQZh-61" vertex="1" connectable="0">
          <mxGeometry x="655" y="10" width="50" height="20" as="geometry"/>
        </mxCell>
        <mxCell id="vB6N_VuCYX5x7YdYGQZh-85" value="" style="group" parent="vB6N_VuCYX5x7YdYGQZh-86" vertex="1" connectable="0">
          <mxGeometry width="50" height="20" as="geometry"/>
        </mxCell>
        <mxCell id="vB6N_VuCYX5x7YdYGQZh-75" value="" style="shape=cylinder;whiteSpace=wrap;html=1;boundedLbl=1;backgroundOutline=1;strokeColor=#23445d;fillColor=#bac8d3;direction=south;" parent="vB6N_VuCYX5x7YdYGQZh-85" vertex="1">
          <mxGeometry width="50" height="20" as="geometry"/>
        </mxCell>
        <mxCell id="vB6N_VuCYX5x7YdYGQZh-52" style="edgeStyle=orthogonalEdgeStyle;rounded=0;orthogonalLoop=1;jettySize=auto;html=1;entryX=0.1;entryY=0.5;entryDx=0;entryDy=0;entryPerimeter=0;strokeWidth=4;fillColor=#bac8d3;strokeColor=#CCCCFF;" parent="vB6N_VuCYX5x7YdYGQZh-61" target="vB6N_VuCYX5x7YdYGQZh-49" edge="1">
          <mxGeometry relative="1" as="geometry">
            <mxPoint x="706.5" y="20" as="sourcePoint"/>
          </mxGeometry>
        </mxCell>
        <mxCell id="vB6N_VuCYX5x7YdYGQZh-76" value="" style="shape=cylinder;whiteSpace=wrap;html=1;boundedLbl=1;backgroundOutline=1;strokeColor=#23445d;fillColor=#bac8d3;direction=south;" parent="vB6N_VuCYX5x7YdYGQZh-61" vertex="1">
          <mxGeometry x="655" y="70" width="50" height="20" as="geometry"/>
        </mxCell>
        <mxCell id="vB6N_VuCYX5x7YdYGQZh-77" style="edgeStyle=orthogonalEdgeStyle;rounded=0;orthogonalLoop=1;jettySize=auto;html=1;exitX=1;exitY=0.5;exitDx=0;exitDy=0;entryX=0.5;entryY=1;entryDx=0;entryDy=0;strokeWidth=4;strokeColor=#CCCCFF;endArrow=none;endFill=0;" parent="vB6N_VuCYX5x7YdYGQZh-61" source="vB6N_VuCYX5x7YdYGQZh-16" target="vB6N_VuCYX5x7YdYGQZh-76" edge="1">
          <mxGeometry relative="1" as="geometry">
            <mxPoint x="560" y="80" as="sourcePoint"/>
            <mxPoint x="731" y="80" as="targetPoint"/>
          </mxGeometry>
        </mxCell>
        <mxCell id="vB6N_VuCYX5x7YdYGQZh-78" value="" style="shape=cylinder;whiteSpace=wrap;html=1;boundedLbl=1;backgroundOutline=1;strokeColor=#23445d;fillColor=#bac8d3;direction=south;" parent="vB6N_VuCYX5x7YdYGQZh-61" vertex="1">
          <mxGeometry x="655" y="130" width="50" height="20" as="geometry"/>
        </mxCell>
        <mxCell id="vB6N_VuCYX5x7YdYGQZh-82" value="&lt;b&gt;Channel&lt;/b&gt;" style="text;html=1;resizable=0;autosize=1;align=center;verticalAlign=middle;points=[];fillColor=#f5f5f5;strokeColor=#666666;rounded=0;gradientColor=#b3b3b3;" parent="vB6N_VuCYX5x7YdYGQZh-61" vertex="1">
          <mxGeometry x="650" y="-60" width="60" height="20" as="geometry"/>
        </mxCell>
        <mxCell id="vB6N_VuCYX5x7YdYGQZh-79" style="edgeStyle=orthogonalEdgeStyle;rounded=0;orthogonalLoop=1;jettySize=auto;html=1;exitX=1;exitY=0.5;exitDx=0;exitDy=0;entryX=0.5;entryY=1;entryDx=0;entryDy=0;strokeWidth=4;strokeColor=#CCCCFF;endArrow=none;endFill=0;" parent="vB6N_VuCYX5x7YdYGQZh-61" source="vB6N_VuCYX5x7YdYGQZh-36" target="vB6N_VuCYX5x7YdYGQZh-78" edge="1">
          <mxGeometry relative="1" as="geometry">
            <mxPoint x="560" y="140" as="sourcePoint"/>
            <mxPoint x="731" y="140" as="targetPoint"/>
          </mxGeometry>
        </mxCell>
        <mxCell id="vB6N_VuCYX5x7YdYGQZh-48" value="" style="edgeStyle=orthogonalEdgeStyle;rounded=0;orthogonalLoop=1;jettySize=auto;html=1;strokeWidth=4;strokeColor=#FF9933;exitX=0.5;exitY=0;exitDx=0;exitDy=0;" parent="1" source="vB6N_VuCYX5x7YdYGQZh-73" target="vB6N_VuCYX5x7YdYGQZh-45" edge="1">
          <mxGeometry relative="1" as="geometry">
            <mxPoint x="120" y="460" as="sourcePoint"/>
          </mxGeometry>
        </mxCell>
        <mxCell id="vB6N_VuCYX5x7YdYGQZh-46" style="edgeStyle=orthogonalEdgeStyle;rounded=0;orthogonalLoop=1;jettySize=auto;html=1;entryX=0;entryY=0.5;entryDx=0;entryDy=0;entryPerimeter=0;targetPerimeterSpacing=-1;strokeWidth=4;strokeColor=#FF9933;" parent="1" source="vB6N_VuCYX5x7YdYGQZh-68" target="vB6N_VuCYX5x7YdYGQZh-42" edge="1">
          <mxGeometry relative="1" as="geometry">
            <mxPoint x="116" y="340" as="sourcePoint"/>
          </mxGeometry>
        </mxCell>
        <mxCell id="vB6N_VuCYX5x7YdYGQZh-64" value="&lt;b&gt;Exchange&lt;/b&gt;" style="text;html=1;resizable=0;autosize=1;align=center;verticalAlign=middle;points=[];fillColor=#6a00ff;strokeColor=#3700CC;rounded=0;fontColor=#ffffff;" parent="1" vertex="1">
          <mxGeometry x="190" y="260" width="70" height="20" as="geometry"/>
        </mxCell>
        <mxCell id="vB6N_VuCYX5x7YdYGQZh-65" value="&lt;b&gt;Queue&lt;/b&gt;" style="text;html=1;resizable=0;autosize=1;align=center;verticalAlign=middle;points=[];fillColor=#e51400;strokeColor=#B20000;rounded=0;fontColor=#ffffff;" parent="1" vertex="1">
          <mxGeometry x="550" y="260" width="50" height="20" as="geometry"/>
        </mxCell>
        <mxCell id="vB6N_VuCYX5x7YdYGQZh-83" value="" style="group" parent="1" vertex="1" connectable="0">
          <mxGeometry x="-70" y="260" width="167.5" height="220" as="geometry"/>
        </mxCell>
        <mxCell id="vB6N_VuCYX5x7YdYGQZh-68" value="" style="shape=cylinder;whiteSpace=wrap;html=1;boundedLbl=1;backgroundOutline=1;strokeColor=#23445d;fillColor=#bac8d3;direction=south;" parent="vB6N_VuCYX5x7YdYGQZh-83" vertex="1">
          <mxGeometry x="105" y="70" width="50" height="20" as="geometry"/>
        </mxCell>
        <mxCell id="vB6N_VuCYX5x7YdYGQZh-72" style="edgeStyle=orthogonalEdgeStyle;rounded=0;orthogonalLoop=1;jettySize=auto;html=1;entryX=0.5;entryY=1;entryDx=0;entryDy=0;targetPerimeterSpacing=-1;strokeWidth=4;strokeColor=#FF9933;exitX=0.9;exitY=0.5;exitDx=0;exitDy=0;exitPerimeter=0;endArrow=none;endFill=0;" parent="vB6N_VuCYX5x7YdYGQZh-83" source="vB6N_VuCYX5x7YdYGQZh-56" target="vB6N_VuCYX5x7YdYGQZh-68" edge="1">
          <mxGeometry relative="1" as="geometry">
            <mxPoint x="165" y="90" as="sourcePoint"/>
            <mxPoint x="225" y="90" as="targetPoint"/>
            <Array as="points">
              <mxPoint x="75" y="80"/>
              <mxPoint x="75" y="80"/>
            </Array>
          </mxGeometry>
        </mxCell>
        <mxCell id="vB6N_VuCYX5x7YdYGQZh-73" value="" style="shape=cylinder;whiteSpace=wrap;html=1;boundedLbl=1;backgroundOutline=1;strokeColor=#23445d;fillColor=#bac8d3;direction=south;" parent="vB6N_VuCYX5x7YdYGQZh-83" vertex="1">
          <mxGeometry x="105" y="190" width="50" height="20" as="geometry"/>
        </mxCell>
        <mxCell id="vB6N_VuCYX5x7YdYGQZh-74" value="" style="edgeStyle=orthogonalEdgeStyle;rounded=0;orthogonalLoop=1;jettySize=auto;html=1;strokeWidth=4;strokeColor=#FF9933;exitX=0.9;exitY=0.5;exitDx=0;exitDy=0;exitPerimeter=0;endArrow=none;endFill=0;" parent="vB6N_VuCYX5x7YdYGQZh-83" source="vB6N_VuCYX5x7YdYGQZh-55" target="vB6N_VuCYX5x7YdYGQZh-73" edge="1">
          <mxGeometry relative="1" as="geometry">
            <mxPoint x="51" y="200" as="sourcePoint"/>
            <mxPoint x="215" y="200" as="targetPoint"/>
          </mxGeometry>
        </mxCell>
        <mxCell id="vB6N_VuCYX5x7YdYGQZh-81" value="&lt;b&gt;Channel&lt;/b&gt;" style="text;html=1;resizable=0;autosize=1;align=center;verticalAlign=middle;points=[];fillColor=#f5f5f5;strokeColor=#666666;rounded=0;gradientColor=#b3b3b3;" parent="vB6N_VuCYX5x7YdYGQZh-83" vertex="1">
          <mxGeometry x="107.5" width="60" height="20" as="geometry"/>
        </mxCell>
        <mxCell id="vB6N_VuCYX5x7YdYGQZh-84" value="" style="group" parent="vB6N_VuCYX5x7YdYGQZh-83" vertex="1" connectable="0">
          <mxGeometry x="-60" width="70" height="220" as="geometry"/>
        </mxCell>
        <mxCell id="vB6N_VuCYX5x7YdYGQZh-55" value="" style="shape=actor;whiteSpace=wrap;html=1;gradientColor=#7ea6e0;fillColor=#dae8fc;strokeColor=#6c8ebf;" parent="vB6N_VuCYX5x7YdYGQZh-84" vertex="1">
          <mxGeometry x="15" y="180" width="40" height="40" as="geometry"/>
        </mxCell>
        <mxCell id="vB6N_VuCYX5x7YdYGQZh-56" value="" style="shape=actor;whiteSpace=wrap;html=1;gradientColor=#7ea6e0;fillColor=#dae8fc;strokeColor=#6c8ebf;" parent="vB6N_VuCYX5x7YdYGQZh-84" vertex="1">
          <mxGeometry x="15" y="60" width="40" height="40" as="geometry"/>
        </mxCell>
        <mxCell id="vB6N_VuCYX5x7YdYGQZh-63" value="&lt;b&gt;Producer&lt;/b&gt;" style="text;html=1;resizable=0;autosize=1;align=center;verticalAlign=middle;points=[];fillColor=#dae8fc;strokeColor=#6c8ebf;rounded=0;gradientColor=#7ea6e0;" parent="vB6N_VuCYX5x7YdYGQZh-84" vertex="1">
          <mxGeometry width="70" height="20" as="geometry"/>
        </mxCell>
        <mxCell id="vB6N_VuCYX5x7YdYGQZh-49" value="" style="shape=actor;whiteSpace=wrap;html=1;gradientColor=#97d077;fillColor=#d5e8d4;strokeColor=#82b366;" parent="1" vertex="1">
          <mxGeometry x="892" y="320" width="40" height="40" as="geometry"/>
        </mxCell>
        <mxCell id="vB6N_VuCYX5x7YdYGQZh-66" value="&lt;b&gt;Consumer&lt;/b&gt;" style="text;html=1;resizable=0;autosize=1;align=center;verticalAlign=middle;points=[];fillColor=#d5e8d4;strokeColor=#82b366;rounded=0;gradientColor=#97d077;" parent="1" vertex="1">
          <mxGeometry x="877" y="260" width="70" height="20" as="geometry"/>
        </mxCell>
        <mxCell id="vB6N_VuCYX5x7YdYGQZh-60" style="edgeStyle=orthogonalEdgeStyle;rounded=0;orthogonalLoop=1;jettySize=auto;html=1;exitX=0.5;exitY=0;exitDx=0;exitDy=0;entryX=0.1;entryY=0.5;entryDx=0;entryDy=0;entryPerimeter=0;strokeWidth=4;strokeColor=#CCCCFF;" parent="1" source="vB6N_VuCYX5x7YdYGQZh-76" target="vB6N_VuCYX5x7YdYGQZh-53" edge="1">
          <mxGeometry relative="1" as="geometry"/>
        </mxCell>
        <mxCell id="vB6N_VuCYX5x7YdYGQZh-59" style="edgeStyle=orthogonalEdgeStyle;rounded=0;orthogonalLoop=1;jettySize=auto;html=1;exitX=0.5;exitY=0;exitDx=0;exitDy=0;entryX=0.1;entryY=0.5;entryDx=0;entryDy=0;entryPerimeter=0;strokeWidth=4;strokeColor=#CCCCFF;" parent="1" source="vB6N_VuCYX5x7YdYGQZh-78" target="vB6N_VuCYX5x7YdYGQZh-54" edge="1">
          <mxGeometry relative="1" as="geometry"/>
        </mxCell>
        <mxCell id="vB6N_VuCYX5x7YdYGQZh-105" value="" style="html=1;verticalLabelPosition=bottom;align=center;labelBackgroundColor=#ffffff;verticalAlign=top;strokeWidth=2;strokeColor=#d6b656;shadow=0;dashed=0;shape=mxgraph.ios7.icons.envelope_(empty);fillColor=#fff2cc;gradientColor=#ffd966;" parent="1" vertex="1">
          <mxGeometry x="897" y="569.5" width="30" height="30" as="geometry"/>
        </mxCell>
        <mxCell id="vB6N_VuCYX5x7YdYGQZh-109" value="" style="endArrow=none;dashed=1;html=1;dashPattern=1 1;strokeColor=#666666;strokeWidth=2;fontColor=#3333FF;gradientColor=#b3b3b3;fillColor=#f5f5f5;exitX=0;exitY=0.983;exitDx=0;exitDy=0;exitPerimeter=0;entryX=1;entryY=0.983;entryDx=0;entryDy=0;entryPerimeter=0;" parent="1" target="vB6N_VuCYX5x7YdYGQZh-99" edge="1">
          <mxGeometry width="50" height="50" relative="1" as="geometry">
            <mxPoint x="895" y="598.99" as="sourcePoint"/>
            <mxPoint x="-26" y="598.99" as="targetPoint"/>
          </mxGeometry>
        </mxCell>
        <mxCell id="vB6N_VuCYX5x7YdYGQZh-99" value="" style="html=1;verticalLabelPosition=bottom;align=center;labelBackgroundColor=#ffffff;verticalAlign=top;strokeWidth=2;strokeColor=#d6b656;shadow=0;dashed=0;shape=mxgraph.ios7.icons.envelope_(message);fillColor=#fff2cc;gradientColor=#ffd966;" parent="1" vertex="1">
          <mxGeometry x="-110" y="569.5" width="30" height="30" as="geometry"/>
        </mxCell>
        <mxCell id="vB6N_VuCYX5x7YdYGQZh-103" value="" style="html=1;verticalLabelPosition=bottom;align=center;labelBackgroundColor=#ffffff;verticalAlign=top;strokeWidth=2;strokeColor=#d6b656;shadow=0;dashed=0;shape=mxgraph.ios7.icons.mail;fillColor=#fff2cc;gradientColor=#ffd966;" parent="1" vertex="1">
          <mxGeometry x="210" y="583" width="30" height="16.5" as="geometry"/>
        </mxCell>
        <mxCell id="vB6N_VuCYX5x7YdYGQZh-112" value="" style="html=1;verticalLabelPosition=bottom;align=center;labelBackgroundColor=#ffffff;verticalAlign=top;strokeWidth=2;strokeColor=#d6b656;shadow=0;dashed=0;shape=mxgraph.ios7.icons.mail;fillColor=#fff2cc;gradientColor=#ffd966;" parent="1" vertex="1">
          <mxGeometry x="560" y="583" width="30" height="16.5" as="geometry"/>
        </mxCell>
        <mxCell id="vB6N_VuCYX5x7YdYGQZh-120" value="&lt;b&gt;&lt;font style=&quot;font-size: 16px&quot;&gt;broker&lt;/font&gt;&lt;/b&gt;" style="rounded=1;whiteSpace=wrap;html=1;strokeColor=#666666;strokeWidth=1;fillColor=#f5f5f5;gradientColor=#b3b3b3;" parent="1" vertex="1">
          <mxGeometry x="360" y="130" width="70" height="30" as="geometry"/>
        </mxCell>
        <mxCell id="vB6N_VuCYX5x7YdYGQZh-122" value="&lt;b&gt;&lt;font style=&quot;font-size: 16px&quot;&gt;v-host&lt;/font&gt;&lt;/b&gt;" style="rounded=1;whiteSpace=wrap;html=1;strokeColor=#666666;strokeWidth=1;fillColor=#f5f5f5;gradientColor=#b3b3b3;" parent="1" vertex="1">
          <mxGeometry x="360" y="210" width="70" height="30" as="geometry"/>
        </mxCell>
        <mxCell id="vB6N_VuCYX5x7YdYGQZh-53" value="" style="shape=actor;whiteSpace=wrap;html=1;gradientColor=#97d077;fillColor=#d5e8d4;strokeColor=#82b366;" parent="1" vertex="1">
          <mxGeometry x="892" y="380" width="40" height="40" as="geometry"/>
        </mxCell>
        <mxCell id="vB6N_VuCYX5x7YdYGQZh-125" value="" style="endArrow=none;dashed=1;html=1;dashPattern=1 1;strokeColor=#666666;strokeWidth=2;fontColor=#3333FF;gradientColor=#b3b3b3;fillColor=#f5f5f5;" parent="1" source="vB6N_VuCYX5x7YdYGQZh-54" target="vB6N_VuCYX5x7YdYGQZh-53" edge="1">
          <mxGeometry width="50" height="50" relative="1" as="geometry">
            <mxPoint x="911.9494758115447" y="569.5" as="sourcePoint"/>
            <mxPoint x="910.9743589743589" y="280" as="targetPoint"/>
          </mxGeometry>
        </mxCell>
        <mxCell id="vB6N_VuCYX5x7YdYGQZh-54" value="" style="shape=actor;whiteSpace=wrap;html=1;gradientColor=#97d077;fillColor=#d5e8d4;strokeColor=#82b366;" parent="1" vertex="1">
          <mxGeometry x="892" y="440" width="40" height="40" as="geometry"/>
        </mxCell>
        <mxCell id="vB6N_VuCYX5x7YdYGQZh-126" value="" style="endArrow=none;dashed=1;html=1;dashPattern=1 1;strokeColor=#666666;strokeWidth=2;fontColor=#3333FF;gradientColor=#b3b3b3;fillColor=#f5f5f5;" parent="1" source="vB6N_VuCYX5x7YdYGQZh-105" target="vB6N_VuCYX5x7YdYGQZh-54" edge="1">
          <mxGeometry width="50" height="50" relative="1" as="geometry">
            <mxPoint x="912" y="569.5" as="sourcePoint"/>
            <mxPoint x="912" y="420" as="targetPoint"/>
          </mxGeometry>
        </mxCell>
        <mxCell id="vB6N_VuCYX5x7YdYGQZh-128" value="" style="endArrow=classic;html=1;dashed=1;dashPattern=1 1;strokeColor=#FF9933;strokeWidth=2;fontColor=#3333FF;exitX=0;exitY=0.5;exitDx=0;exitDy=0;exitPerimeter=0;startArrow=classic;startFill=1;entryX=0.8;entryY=0;entryDx=0;entryDy=0;entryPerimeter=0;" parent="1" source="vB6N_VuCYX5x7YdYGQZh-129" target="vB6N_VuCYX5x7YdYGQZh-142" edge="1">
          <mxGeometry width="50" height="50" relative="1" as="geometry">
            <mxPoint x="230" y="1080" as="sourcePoint"/>
            <mxPoint x="-90" y="1060" as="targetPoint"/>
          </mxGeometry>
        </mxCell>
        <mxCell id="vB6N_VuCYX5x7YdYGQZh-131" value="&lt;span style=&quot;color: rgb(64 , 64 , 64) ; white-space: normal&quot;&gt;&lt;b&gt;&lt;font style=&quot;font-size: 12px&quot;&gt;(进入MQ的结果)&lt;br&gt;ConfirmCallback&lt;/font&gt;&lt;/b&gt;&lt;/span&gt;" style="text;html=1;resizable=0;points=[];align=center;verticalAlign=middle;labelBackgroundColor=#ffffff;fontColor=#3333FF;" parent="vB6N_VuCYX5x7YdYGQZh-128" vertex="1" connectable="0">
          <mxGeometry x="-0.1298" y="-1" relative="1" as="geometry">
            <mxPoint as="offset"/>
          </mxGeometry>
        </mxCell>
        <mxCell id="vB6N_VuCYX5x7YdYGQZh-129" value="" style="html=1;shadow=0;dashed=0;align=center;verticalAlign=middle;shape=mxgraph.arrows2.arrow;dy=0;dx=10;notch=0;fillColor=#3333FF;strokeColor=#d79b00;" parent="1" vertex="1">
          <mxGeometry x="200" y="1040" width="60" height="40" as="geometry"/>
        </mxCell>
        <mxCell id="vB6N_VuCYX5x7YdYGQZh-132" value="" style="group;fillColor=#e51400;strokeColor=#B20000;fontColor=#ffffff;" parent="1" vertex="1" connectable="0">
          <mxGeometry x="485" y="1080" width="105" height="40" as="geometry"/>
        </mxCell>
        <mxCell id="vB6N_VuCYX5x7YdYGQZh-140" value="" style="endArrow=classic;html=1;dashed=1;dashPattern=1 1;strokeColor=#FF9933;strokeWidth=2;fontColor=#3333FF;exitX=0;exitY=0.5;exitDx=0;exitDy=0;startArrow=classic;startFill=1;entryX=1;entryY=1;entryDx=0;entryDy=0;entryPerimeter=0;" parent="1" source="vB6N_VuCYX5x7YdYGQZh-134" target="vB6N_VuCYX5x7YdYGQZh-142" edge="1">
          <mxGeometry width="50" height="50" relative="1" as="geometry">
            <mxPoint x="215" y="1070" as="sourcePoint"/>
            <mxPoint x="-80" y="1100" as="targetPoint"/>
          </mxGeometry>
        </mxCell>
        <mxCell id="vB6N_VuCYX5x7YdYGQZh-141" value="&lt;span style=&quot;color: rgb(64 , 64 , 64) ; white-space: normal&quot;&gt;&lt;b&gt;&lt;font style=&quot;font-size: 12px&quot;&gt;（路由到队列的结果）&lt;br&gt;ReturnCallback&lt;/font&gt;&lt;/b&gt;&lt;/span&gt;" style="text;html=1;resizable=0;points=[];align=center;verticalAlign=middle;labelBackgroundColor=#ffffff;fontColor=#3333FF;" parent="vB6N_VuCYX5x7YdYGQZh-140" vertex="1" connectable="0">
          <mxGeometry x="-0.1298" y="-1" relative="1" as="geometry">
            <mxPoint as="offset"/>
          </mxGeometry>
        </mxCell>
        <mxCell id="vB6N_VuCYX5x7YdYGQZh-142" value="" style="shape=actor;whiteSpace=wrap;html=1;gradientColor=#7ea6e0;fillColor=#dae8fc;strokeColor=#6c8ebf;" parent="1" vertex="1">
          <mxGeometry x="-110" y="1060" width="40" height="40" as="geometry"/>
        </mxCell>
        <mxCell id="uIHEZVqaHCIBKPa6FD2R-19" value="&lt;b&gt;&lt;font style=&quot;font-size: 12px&quot;&gt;ACK（手动、自动）&lt;/font&gt;&lt;/b&gt;" style="edgeStyle=orthogonalEdgeStyle;rounded=0;orthogonalLoop=1;jettySize=auto;html=1;exitX=0.5;exitY=1;exitDx=0;exitDy=0;dashed=1;dashPattern=1 1;strokeWidth=2;fillColor=#ffe6cc;strokeColor=#FFB366;" edge="1" parent="1" source="vB6N_VuCYX5x7YdYGQZh-173">
          <mxGeometry relative="1" as="geometry">
            <mxPoint x="720" y="1120" as="targetPoint"/>
            <Array as="points">
              <mxPoint x="830" y="1120"/>
              <mxPoint x="830" y="1120"/>
            </Array>
          </mxGeometry>
        </mxCell>
        <mxCell id="vB6N_VuCYX5x7YdYGQZh-173" value="" style="shape=actor;whiteSpace=wrap;html=1;gradientColor=#97d077;fillColor=#d5e8d4;strokeColor=#82b366;" parent="1" vertex="1">
          <mxGeometry x="901.5" y="1080" width="40" height="40" as="geometry"/>
        </mxCell>
        <mxCell id="vB6N_VuCYX5x7YdYGQZh-174" value="&lt;font color=&quot;#000000&quot;&gt;&lt;span style=&quot;font-size: 12px&quot;&gt;&lt;b&gt;分发消息(Qos)&lt;/b&gt;&lt;/span&gt;&lt;/font&gt;" style="endArrow=classic;html=1;dashed=1;dashPattern=1 1;strokeColor=#FF9933;strokeWidth=2;fontColor=#3333FF;entryX=0.5;entryY=0;entryDx=0;entryDy=0;startArrow=none;startFill=0;endFill=1;" parent="1" target="vB6N_VuCYX5x7YdYGQZh-173" edge="1">
          <mxGeometry width="50" height="50" relative="1" as="geometry">
            <mxPoint x="720" y="1080" as="sourcePoint"/>
            <mxPoint x="-70" y="1400" as="targetPoint"/>
          </mxGeometry>
        </mxCell>
        <mxCell id="vB6N_VuCYX5x7YdYGQZh-133" value="" style="group;fillColor=#e51400;strokeColor=#B20000;fontColor=#ffffff;" parent="1" vertex="1" connectable="0">
          <mxGeometry x="485" y="1080" width="80" height="40" as="geometry"/>
        </mxCell>
        <mxCell id="vB6N_VuCYX5x7YdYGQZh-134" value="" style="rounded=0;whiteSpace=wrap;html=1;fillColor=#e51400;strokeColor=#B20000;fontColor=#ffffff;" parent="1" vertex="1">
          <mxGeometry x="485" y="1080" width="20" height="40" as="geometry"/>
        </mxCell>
        <mxCell id="vB6N_VuCYX5x7YdYGQZh-135" value="" style="rounded=0;whiteSpace=wrap;html=1;fillColor=#e51400;strokeColor=#B20000;fontColor=#ffffff;" parent="1" vertex="1">
          <mxGeometry x="505" y="1080" width="20" height="40" as="geometry"/>
        </mxCell>
        <mxCell id="vB6N_VuCYX5x7YdYGQZh-136" value="" style="rounded=0;whiteSpace=wrap;html=1;fillColor=#e51400;strokeColor=#B20000;fontColor=#ffffff;" parent="1" vertex="1">
          <mxGeometry x="525" y="1080" width="20" height="40" as="geometry"/>
        </mxCell>
        <mxCell id="vB6N_VuCYX5x7YdYGQZh-137" value="" style="rounded=0;whiteSpace=wrap;html=1;fillColor=#e51400;strokeColor=#B20000;fontColor=#ffffff;" parent="1" vertex="1">
          <mxGeometry x="545" y="1080" width="20" height="40" as="geometry"/>
        </mxCell>
        <mxCell id="vB6N_VuCYX5x7YdYGQZh-138" value="" style="rounded=0;whiteSpace=wrap;html=1;fillColor=#666666;strokeColor=#B20000;fontColor=#ffffff;" parent="1" vertex="1">
          <mxGeometry x="590" y="1080" width="20" height="40" as="geometry"/>
        </mxCell>
        <mxCell id="vB6N_VuCYX5x7YdYGQZh-208" value="" style="endArrow=classic;html=1;dashed=1;dashPattern=1 1;strokeColor=#FF9933;strokeWidth=2;fontColor=#3333FF;startArrow=none;startFill=0;exitX=0.5;exitY=0;exitDx=0;exitDy=0;" parent="1" edge="1" source="uIHEZVqaHCIBKPa6FD2R-18">
          <mxGeometry width="50" height="50" relative="1" as="geometry">
            <mxPoint x="535" y="1080" as="sourcePoint"/>
            <mxPoint x="575" y="960" as="targetPoint"/>
          </mxGeometry>
        </mxCell>
        <mxCell id="vB6N_VuCYX5x7YdYGQZh-209" value="&lt;b&gt;&lt;font color=&quot;#000000&quot;&gt;TTL（时间）-&lt;/font&gt;&lt;/b&gt;" style="text;html=1;resizable=0;points=[];align=center;verticalAlign=middle;labelBackgroundColor=#ffffff;fontColor=#3333FF;horizontal=1;" parent="vB6N_VuCYX5x7YdYGQZh-208" vertex="1" connectable="0">
          <mxGeometry x="-0.2625" y="2" relative="1" as="geometry">
            <mxPoint x="2" y="-6" as="offset"/>
          </mxGeometry>
        </mxCell>
        <mxCell id="vB6N_VuCYX5x7YdYGQZh-210" value="" style="endArrow=classic;html=1;dashed=1;dashPattern=1 1;strokeColor=#FF9933;strokeWidth=2;fontColor=#3333FF;startArrow=none;startFill=0;entryX=0.5;entryY=1;entryDx=0;entryDy=0;exitX=0.5;exitY=0;exitDx=0;exitDy=0;" parent="1" edge="1" target="uIHEZVqaHCIBKPa6FD2R-13" source="vB6N_VuCYX5x7YdYGQZh-138">
          <mxGeometry width="50" height="50" relative="1" as="geometry">
            <mxPoint x="625" y="1110" as="sourcePoint"/>
            <mxPoint x="595" y="967" as="targetPoint"/>
          </mxGeometry>
        </mxCell>
        <mxCell id="vB6N_VuCYX5x7YdYGQZh-211" value="&lt;font color=&quot;#000000&quot;&gt;&lt;b&gt;队列满了（空间）&lt;/b&gt;&lt;/font&gt;" style="text;html=1;resizable=0;points=[];align=center;verticalAlign=middle;labelBackgroundColor=#ffffff;fontColor=#3333FF;" parent="vB6N_VuCYX5x7YdYGQZh-210" vertex="1" connectable="0">
          <mxGeometry x="-0.2625" y="2" relative="1" as="geometry">
            <mxPoint x="7" y="-36" as="offset"/>
          </mxGeometry>
        </mxCell>
        <mxCell id="vB6N_VuCYX5x7YdYGQZh-222" value="&lt;b&gt;&lt;font color=&quot;#000000&quot;&gt;持久化&lt;/font&gt;&lt;/b&gt;" style="text;html=1;resizable=0;points=[];autosize=1;align=left;verticalAlign=top;spacingTop=-4;fontColor=#3333FF;" parent="1" vertex="1">
          <mxGeometry x="235" y="1020" width="50" height="20" as="geometry"/>
        </mxCell>
        <mxCell id="uIHEZVqaHCIBKPa6FD2R-7" value="" style="group;fillColor=#666666;strokeColor=#B20000;fontColor=#ffffff;" vertex="1" connectable="0" parent="1">
          <mxGeometry x="485" y="920" width="105" height="40" as="geometry"/>
        </mxCell>
        <mxCell id="uIHEZVqaHCIBKPa6FD2R-8" value="" style="group;fillColor=#666666;strokeColor=#B20000;fontColor=#ffffff;" vertex="1" connectable="0" parent="1">
          <mxGeometry x="485" y="920" width="105" height="40" as="geometry"/>
        </mxCell>
        <mxCell id="uIHEZVqaHCIBKPa6FD2R-9" value="" style="rounded=0;whiteSpace=wrap;html=1;fillColor=#666666;strokeColor=#B20000;fontColor=#ffffff;" vertex="1" parent="1">
          <mxGeometry x="485" y="920" width="20" height="40" as="geometry"/>
        </mxCell>
        <mxCell id="uIHEZVqaHCIBKPa6FD2R-10" value="" style="rounded=0;whiteSpace=wrap;html=1;fillColor=#666666;strokeColor=#B20000;fontColor=#ffffff;" vertex="1" parent="1">
          <mxGeometry x="505" y="920" width="20" height="40" as="geometry"/>
        </mxCell>
        <mxCell id="uIHEZVqaHCIBKPa6FD2R-11" value="" style="rounded=0;whiteSpace=wrap;html=1;fillColor=#666666;strokeColor=#B20000;fontColor=#ffffff;" vertex="1" parent="1">
          <mxGeometry x="525" y="920" width="20" height="40" as="geometry"/>
        </mxCell>
        <mxCell id="uIHEZVqaHCIBKPa6FD2R-12" value="" style="rounded=0;whiteSpace=wrap;html=1;fillColor=#666666;strokeColor=#B20000;fontColor=#ffffff;" vertex="1" parent="1">
          <mxGeometry x="545" y="920" width="20" height="40" as="geometry"/>
        </mxCell>
        <mxCell id="uIHEZVqaHCIBKPa6FD2R-13" value="" style="rounded=0;whiteSpace=wrap;html=1;fillColor=#666666;strokeColor=#B20000;fontColor=#ffffff;" vertex="1" parent="1">
          <mxGeometry x="590" y="920" width="20" height="40" as="geometry"/>
        </mxCell>
        <mxCell id="uIHEZVqaHCIBKPa6FD2R-17" value="&lt;b&gt;&lt;font style=&quot;font-size: 13px&quot;&gt;DLX-死信队列&lt;/font&gt;&lt;/b&gt;" style="text;html=1;resizable=0;points=[];autosize=1;align=left;verticalAlign=top;spacingTop=-4;" vertex="1" parent="1">
          <mxGeometry x="395" y="930" width="100" height="20" as="geometry"/>
        </mxCell>
        <mxCell id="uIHEZVqaHCIBKPa6FD2R-18" value="" style="rounded=0;whiteSpace=wrap;html=1;fillColor=#666666;strokeColor=#B20000;fontColor=#ffffff;" vertex="1" parent="1">
          <mxGeometry x="565" y="1080" width="25" height="40" as="geometry"/>
        </mxCell>
        <mxCell id="uIHEZVqaHCIBKPa6FD2R-23" value="重回" style="edgeStyle=orthogonalEdgeStyle;rounded=0;orthogonalLoop=1;jettySize=auto;html=1;dashed=1;dashPattern=1 1;startArrow=none;startFill=0;endArrow=classic;endFill=1;strokeColor=#FFB366;strokeWidth=2;" edge="1" parent="1" source="uIHEZVqaHCIBKPa6FD2R-22">
          <mxGeometry relative="1" as="geometry">
            <mxPoint x="610" y="1100" as="targetPoint"/>
          </mxGeometry>
        </mxCell>
        <mxCell id="uIHEZVqaHCIBKPa6FD2R-26" value="删除" style="edgeStyle=orthogonalEdgeStyle;rounded=0;orthogonalLoop=1;jettySize=auto;html=1;dashed=1;dashPattern=1 1;startArrow=none;startFill=0;endArrow=classic;endFill=1;strokeColor=#FFB366;strokeWidth=2;" edge="1" parent="1" source="uIHEZVqaHCIBKPa6FD2R-22">
          <mxGeometry relative="1" as="geometry">
            <mxPoint x="685" y="1190" as="targetPoint"/>
          </mxGeometry>
        </mxCell>
        <mxCell id="uIHEZVqaHCIBKPa6FD2R-27" style="edgeStyle=orthogonalEdgeStyle;rounded=0;orthogonalLoop=1;jettySize=auto;html=1;exitX=0.5;exitY=0;exitDx=0;exitDy=0;entryX=1;entryY=0.5;entryDx=0;entryDy=0;dashed=1;dashPattern=1 1;startArrow=none;startFill=0;endArrow=classic;endFill=1;strokeColor=#FFB366;strokeWidth=2;" edge="1" parent="1" source="uIHEZVqaHCIBKPa6FD2R-22" target="uIHEZVqaHCIBKPa6FD2R-13">
          <mxGeometry relative="1" as="geometry"/>
        </mxCell>
        <mxCell id="uIHEZVqaHCIBKPa6FD2R-28" value="进入DLX" style="text;html=1;resizable=0;points=[];align=center;verticalAlign=middle;labelBackgroundColor=#ffffff;" vertex="1" connectable="0" parent="uIHEZVqaHCIBKPa6FD2R-27">
          <mxGeometry x="-0.1535" y="-1" relative="1" as="geometry">
            <mxPoint as="offset"/>
          </mxGeometry>
        </mxCell>
        <mxCell id="uIHEZVqaHCIBKPa6FD2R-22" value="" style="ellipse;whiteSpace=wrap;html=1;aspect=fixed;strokeColor=#666666;strokeWidth=3;fillColor=#666666;" vertex="1" parent="1">
          <mxGeometry x="665" y="1080" width="40" height="40" as="geometry"/>
        </mxCell>
      </root>
    </mxGraphModel>
  </diagram>
</mxfile>
